<?xml version="1.0" encoding="UTF-8" standalone="no"?>
<!-- Created with Inkscape (http://www.inkscape.org/) -->

<svg
   width="122.57821mm"
   height="121.99866mm"
   viewBox="0 0 122.57821 121.99866"
   version="1.1"
   id="svg6276"
   inkscape:export-filename="quickgrid.svg"
   inkscape:export-xdpi="96"
   inkscape:export-ydpi="96"
   inkscape:version="1.2 (dc2aedaf03, 2022-05-15)"
   sodipodi:docname="quickgrid.svg"
   xmlns:inkscape="http://www.inkscape.org/namespaces/inkscape"
   xmlns:sodipodi="http://sodipodi.sourceforge.net/DTD/sodipodi-0.dtd"
   xmlns="http://www.w3.org/2000/svg"
   xmlns:svg="http://www.w3.org/2000/svg">
  <sodipodi:namedview
     id="namedview6278"
     pagecolor="#ffffff"
     bordercolor="#000000"
     borderopacity="0.25"
     inkscape:showpageshadow="2"
     inkscape:pageopacity="0.0"
     inkscape:pagecheckerboard="0"
     inkscape:deskcolor="#d1d1d1"
     inkscape:document-units="mm"
     showgrid="false"
     inkscape:zoom="0.76880612"
     inkscape:cx="114.46319"
     inkscape:cy="205.51345"
     inkscape:window-width="1920"
     inkscape:window-height="1017"
     inkscape:window-x="-8"
     inkscape:window-y="-8"
     inkscape:window-maximized="1"
     inkscape:current-layer="layer1" />
  <defs
     id="defs6273" />
  <g
     inkscape:label="Layer 1"
     inkscape:groupmode="layer"
     id="layer1"
     transform="translate(-47.117614,126.38751)">
    <g
       id="g1821"
       style="fill:#ffeeaa"
       transform="matrix(0.26458333,0,0,0.26458333,47.117614,-126.38751)">
      <g
         id="g1819"
         style="fill:#ffeeaa">
        <path
           d="M 427.137,0 H 32.865 C 14.743,0 0,14.743 0,32.865 v 408.543 c 0,10.253 8.341,18.594 18.594,18.594 h 408.543 c 18.122,0 32.865,-14.743 32.865,-32.865 V 32.865 C 460.002,14.743 445.259,0 427.137,0 Z M 139.001,56.001 c 39.149,0 71,31.851 71,71 0,39.149 -31.851,71 -71,71 -39.149,0 -71,-31.851 -71,-71 0,-39.149 31.851,-71 71,-71 z M 405.24,393.215 c -2.634,4.801 -7.675,7.786 -13.151,7.786 H 67.913 c -5.477,0 -10.518,-2.984 -13.151,-7.786 -2.634,-4.802 -2.442,-10.657 0.501,-15.275 l 77.092,-120.984 c 2.754,-4.322 7.524,-6.939 12.65,-6.939 5.126,0 9.896,2.617 12.65,6.939 l 37.029,58.111 72.346,-113.536 c 2.754,-4.323 7.524,-6.939 12.65,-6.939 5.125,0 9.896,2.617 12.65,6.939 L 404.739,377.94 c 2.943,4.619 3.135,10.474 0.501,15.275 z"
           id="path1817"
           style="fill:#ffeeaa" />
      </g>
    </g>
    <rect
       style="fill:#806600;stroke-width:0.259873"
       id="rect2377"
       width="122.28843"
       height="4.3287888"
       x="47.117615"
       y="-82.920059" />
    <rect
       style="fill:#806600;stroke-width:0.270006"
       id="rect2377-2"
       width="122.28843"
       height="4.6729369"
       x="47.407394"
       y="-43.690872" />
    <rect
       style="fill:#806600;stroke-width:0.391948"
       id="rect2572"
       width="5.0714507"
       height="121.70886"
       x="82.905571"
       y="-126.09772" />
    <rect
       style="fill:#806600;stroke-width:0.364381"
       id="rect2572-4"
       width="4.3831539"
       height="121.70886"
       x="128.83643"
       y="-126.09772" />
  </g>
</svg>
